<svg xmlns="http://www.w3.org/2000/svg" xmlns:xlink="http://www.w3.org/1999/xlink" fill="none" version="1.1" width="17.83854103088379" height="17.96875" viewBox="0 0 17.83854103088379 17.96875"><g><path d="M12.5,1.6927084L12.5,3.7760415C12.50013,4.13553,12.791553,4.4269528,13.151041,4.4269528C13.51053,4.4269528,13.801952,4.13553,13.802083,3.7760415L13.802083,1.6927084Q13.802083,0,12.109375,0L1.6927087,0Q0,0,0,1.6927084L0,16.276041Q0,17.96875,1.6927084,17.96875L12.109375,17.96875Q13.802083,17.96875,13.802083,16.276041L13.801952,14.192708C13.801952,13.83322,13.51053,13.541797,13.151041,13.541797C12.791553,13.541797,12.50013,13.83322,12.5,14.192708L12.5,16.276041Q12.5,16.666666,12.109375,16.666666L1.6927084,16.666666Q1.3020833,16.666666,1.3020833,16.276041L1.3020833,1.6927084Q1.3020833,1.3020833,1.6927087,1.3020833L12.109375,1.3020833Q12.5,1.3020833,12.5,1.6927084ZM8.203125,10.026051C7.7716522,10.026051,7.4218745,9.6762733,7.4218745,9.2448006C7.4218745,8.8133268,7.7716522,8.4635506,8.203125,8.4635506L15.171195,8.4635506L13.8375,7.1298547C13.532404,6.8247576,13.532404,6.3300977,13.8375,6.0250006C14.142598,5.7199035,14.637257,5.7199035,14.942355,6.0250006Q16.726002,7.8085938,17.152061,8.2347088C17.578125,8.6608248,17.838541,8.984375,17.838541,9.244791C17.838541,9.505208,17.641193,9.765625,17.152061,10.254827Q16.662933,10.744031,14.942355,12.464537C14.637257,12.769633,14.142598,12.769633,13.8375,12.464537C13.532404,12.159439,13.532404,11.66478,13.8375,11.359682L15.171132,10.026051L8.203125,10.026051Z" fill-rule="evenodd" fill="#D1AE52" fill-opacity="1"/></g></svg>