<svg xmlns="http://www.w3.org/2000/svg" xmlns:xlink="http://www.w3.org/1999/xlink" fill="none" version="1.1" width="18.75" height="16.66666603088379" viewBox="0 0 18.75 16.66666603088379"><g><path d="M0,1.0416666C0,0.46636957,0.46637055,0,1.0416666,0L14.062499,0C14.637796,0,15.104166,0.46636957,15.104166,1.0416666C15.104166,1.6169636,14.637796,2.0833333,14.062499,2.0833333L1.0416666,2.0833333C0.46637055,2.0833333,0,1.6169636,0,1.0416666ZM1.0416666,3.6458333L14.062499,3.6458333C14.62107,3.6458333,15.076954,4.0854764,15.102992,4.6376023C14.550014,4.4977956,13.981835,4.427083,13.411458,4.427083Q13.379994,4.4270835,13.348554,4.4273696C12.462706,4.4354405,11.591693,4.6138892,10.781371,4.9479165C10.287249,5.1516013,9.8156929,5.4131365,9.3771009,5.7291665L1.0416666,5.7291665C0.46637055,5.7291665,0,5.2627969,0,4.6875C0,4.1122026,0.46637055,3.6458333,1.0416666,3.6458333ZM7.8979321,10.229765C8.0906429,9.1510143,8.5996628,8.1818466,9.3256245,7.4216285C9.4565639,7.2845101,9.5945606,7.1541896,9.7390318,7.0312495C10.6933,6.2192025,11.930048,5.7291665,13.281249,5.7291665C13.302446,5.7291665,13.323613,5.7292871,13.344753,5.7295275C16.335802,5.7635608,18.75,8.1988058,18.75,11.197916C18.75,14.218224,16.301558,16.666666,13.281249,16.666666C10.282656,16.666666,7.8477349,14.253303,7.8128786,11.26297C7.8126264,11.241316,7.8124995,11.21963,7.8124995,11.197916C7.8124995,10.995999,7.8234425,10.796638,7.8447676,10.600393C7.8583345,10.475542,7.8761048,10.35195,7.8979321,10.229765ZM13.281249,15.364583Q15.007141,15.364583,16.227528,14.144197Q17.447916,12.923807,17.447916,11.197917Q17.447916,9.4720268,16.227528,8.2516384Q15.007138,7.0312495,13.281248,7.0312495Q11.555359,7.0312495,10.334971,8.2516384Q9.114583,9.4720268,9.114583,11.197916Q9.114583,12.923807,10.334971,14.144197Q11.555358,15.364583,13.281249,15.364583ZM1.0416666,7.2916665L7.814014,7.2916665C7.5207901,7.6982861,7.2732339,8.1349669,7.0752468,8.59375C6.9655957,8.8478384,6.8711491,9.1087046,6.7925701,9.375L1.0416666,9.375C0.46637055,9.375,0,8.9086294,0,8.333333C0,7.7580366,0.46637055,7.2916665,1.0416666,7.2916665ZM13.294913,8.3425226C13.542239,8.7007418,14.228871,9.3977203,14.839833,9.9310856C15.341494,10.364264,16.145132,11.011509,16.145832,11.908858C16.145832,12.63683,15.595827,13.277588,14.771871,13.277588C14.24989,13.277588,13.809885,13.026764,13.638227,12.668544C13.589883,12.574123,13.582877,12.530157,13.528226,12.530157C13.483677,12.530157,13.48613,12.615845,13.48679,12.638885L13.486889,12.643317C13.528226,13.296329,13.78256,13.642295,14.167213,13.937087C14.242883,13.999793,14.19454,14.062499,14.167213,14.062499L12.395285,14.062499C12.36796,14.062499,12.31261,13.999793,12.395285,13.937087C12.779939,13.641574,13.034273,13.296329,13.07561,12.643317L13.075712,12.638637C13.076376,12.614982,13.078756,12.530157,13.034273,12.530157C12.978922,12.530157,12.972616,12.574123,12.924272,12.668544C12.752614,13.026042,12.31261,13.277588,11.790629,13.277588C10.972978,13.277588,10.416666,12.637551,10.416666,11.908858C10.416666,11.011509,11.220304,10.364264,11.721966,9.9310856C12.333629,9.3977203,13.02026,8.7007418,13.267587,8.3425226C13.274593,8.3302698,13.287906,8.3302698,13.294913,8.3425226ZM6.5214806,10.9375L1.0416666,10.9375C0.46637055,10.9375,0,11.403871,0,11.979166C0,12.554462,0.46637055,13.020833,1.0416666,13.020833L6.7212324,13.020833C6.6132088,12.593881,6.5463762,12.15786,6.521481,11.718756C6.514111,11.588764,6.5104165,11.458502,6.5104165,11.328125Q6.5104165,11.296675,6.5107031,11.26523C6.5116992,11.155919,6.5152926,11.046644,6.5214806,10.9375ZM7.326395,14.583333C7.471674,14.854907,7.6346478,15.115851,7.814014,15.364583C8.1631927,15.848795,8.5744953,16.286718,9.0383186,16.666666L1.0416666,16.666666C0.46637055,16.666666,0,16.200296,0,15.624999C0,15.049703,0.46637055,14.583333,1.0416666,14.583333L7.326395,14.583333Z" fill-rule="evenodd" fill="#04BE02" fill-opacity="1" style="mix-blend-mode:passthrough"/></g></svg>