<svg xmlns="http://www.w3.org/2000/svg" xmlns:xlink="http://www.w3.org/1999/xlink" fill="none" version="1.1" width="20.338665008544922" height="15.624999046325684" viewBox="0 0 20.338665008544922 15.624999046325684"><g><path d="M0,11.458333L0,2.0833333C0,0.93274015,0.93274015,0,2.0833333,0L16.666666,0C17.817261,0,18.75,0.93274015,18.75,2.0833333L18.75,5.989583C18.346798,5.6871815,17.909843,5.4326224,17.447916,5.2310209L17.447916,4.9479165L16.666666,4.9479165C16.074434,4.7751822,15.460657,4.6875,14.843749,4.6875C14.226841,4.6875,13.613065,4.7751822,13.020833,4.9479165L1.3020833,4.9479165L1.3020833,11.458333Q1.3020833,12.239583,2.0833333,12.239583L8.4172068,12.239583C8.4893475,12.68465,8.6075258,13.12102,8.7698412,13.541666L2.0833333,13.541666C0.93274015,13.541666,0,12.608926,0,11.458333ZM1.3020833,3.6458333L17.447916,3.6458333L17.447916,2.0833333Q17.447916,1.3020833,16.666666,1.3020833L2.0833333,1.3020833Q1.3020833,1.3020833,1.3020833,2.0833333L1.3020833,3.6458333ZM20.207596,12.295206Q20.540953,11.711138,20.021425,11.33658L19.256548,10.749423Q19.258287,10.735451,19.260334,10.72016Q19.275728,10.605116,19.275728,10.546875Q19.275728,10.427448,19.267809,10.335684L20.02142,9.7571735Q20.540964,9.3826303,20.209665,8.802104L19.268759,7.2122264Q18.955477,6.6632042,18.336996,6.8954306L17.429888,7.2586813Q17.240103,7.1400638,17.05377,7.0501304L16.926296,6.1056037Q16.846807,5.46875,16.169462,5.46875L14.291789,5.46875Q13.692327,5.46875,13.540371,6.0773501L13.53688,6.0913272L13.407479,7.0501308Q13.221151,7.1400614,13.031371,7.2586761L12.129536,6.8974791Q11.505779,6.6632051,11.190425,7.2157831L10.253655,8.7985439Q9.9428854,9.3430214,10.428278,9.7480335L10.432344,9.7514267L11.2047,10.344326Q11.202958,10.358328,11.200915,10.37359Q11.185522,10.488629,11.185522,10.546874Q11.185522,10.666301,11.193442,10.758065L10.432344,11.342322L10.428278,11.345715Q9.9428873,11.750728,10.251588,12.291648L11.192492,13.881524Q11.50578,14.430546,12.124254,14.198318L13.031363,13.835068Q13.221146,13.953685,13.407479,14.043619L13.534955,14.988146Q13.614448,15.624999,14.291789,15.624999L16.169462,15.624999Q16.846807,15.624999,16.92663,14.985574L17.053768,14.043621Q17.240095,13.953691,17.42988,13.835072L18.324137,14.193235Q18.435108,14.244315,18.604568,14.244315Q19.051369,14.244315,19.268032,13.882744L20.207596,12.295206ZM18.317392,11.391636L19.11178,11.970111L18.432764,13.132498L17.489748,12.769335L17.484131,12.767461Q17.216473,12.678126,16.993055,12.827263L16.987041,12.831278L16.981258,12.83562Q16.730431,13.023983,16.30835,13.212718Q16.007132,13.320045,15.997386,13.639183L15.856588,14.57905L14.516367,14.601048L14.375863,13.639709Q14.366141,13.313114,14.051506,13.208105Q13.757165,13.109865,13.391975,12.835621L13.37319,12.821515L13.352181,12.810997Q13.343447,12.806623,13.323956,12.795357Q13.201717,12.724689,13.088904,12.724689Q12.959778,12.724689,12.867283,12.788194L11.990836,13.157699L11.292672,12.021727L12.086985,11.419204L12.099619,11.406552Q12.329072,11.176803,12.256496,10.924715Q12.234452,10.80357,12.234452,10.576251Q12.234452,10.337619,12.258746,10.215991L12.26379,10.190737L12.26379,10.164983Q12.26379,9.9103346,12.09962,9.7459497L12.085178,9.7314892L11.288101,9.1510534L11.943455,7.9917765L12.883486,8.3537912L12.889103,8.3556652Q13.156761,8.4449987,13.380178,8.2958622L13.386192,8.2918472L13.391975,8.2875051Q13.757163,8.0132627,14.051508,7.9150219Q14.367609,7.8095193,14.375946,7.4803658L14.492837,6.5440454L15.856857,6.522017L15.99737,7.4834151Q16.007092,7.810008,16.321724,7.9150219Q16.61607,8.0132627,16.981258,8.2875051L16.987041,8.2918472L16.993053,8.2958612Q17.216471,8.4449997,17.484129,8.3556652L17.493628,8.3524961L18.411737,7.9654274L19.1099,9.1013985L18.315584,9.7039232L18.30295,9.7165737Q18.073498,9.9463243,18.146074,10.198412Q18.168121,10.319554,18.168121,10.546875Q18.168121,10.785504,18.143826,10.907132L18.138781,10.932387L18.138781,10.958142Q18.138781,11.21279,18.30295,11.377174L18.317392,11.391636ZM3.3854165,6.770833C2.953944,6.770833,2.6041665,7.1206107,2.6041665,7.552083C2.6041665,7.9835558,2.953944,8.333333,3.3854165,8.333333L5.989583,8.333333C6.4210558,8.333333,6.770833,7.9835558,6.770833,7.552083C6.770833,7.1206107,6.4210558,6.770833,5.989583,6.770833L3.3854165,6.770833ZM15.104166,11.979166C15.967112,11.979166,16.666666,11.279612,16.666666,10.416666C16.666666,9.5537214,15.967112,8.854166,15.104166,8.854166C14.241221,8.854166,13.541666,9.5537214,13.541666,10.416666C13.541666,11.279612,14.241221,11.979166,15.104166,11.979166Z" fill-rule="evenodd" fill="#EA4E3D" fill-opacity="1"/></g></svg>