<svg xmlns="http://www.w3.org/2000/svg" xmlns:xlink="http://www.w3.org/1999/xlink" fill="none" version="1.1" width="11.458292961120605" height="13.541671752929688" viewBox="0 0 11.458292961120605 13.541671752929688"><g><path d="M2.291626,0.50000006L2.291626,10.706897C2.291626,10.983039,2.5154836,11.206897,2.791626,11.206897L10.958293,11.206897C11.234435,11.206897,11.458293,10.983039,11.458293,10.706897L11.458293,3.2686784L8.249959,0L2.791626,0C2.5154836,0,2.291626,0.22385764,2.291626,0.50000006ZM6.416626,1.25L3.541626,1.25L3.541626,9.9568968L10.208294,9.9568968L10.208294,5.1364942L6.916626,5.1364942C6.6404839,5.1364942,6.416626,4.9126368,6.416626,4.6364942L6.416626,1.25ZM0,13.074718Q0,13.541672,0.45833349,13.541672L8.25,13.541672C9.166667,13.541672,9.166667,12.374288,8.25,12.374288L1.1458335,12.374288L1.1458335,3.2686853C1.1458335,2.3347731,0,2.3347771,0,3.2686853L0,13.074718Z" fill-rule="evenodd" fill="#D1AE52" fill-opacity="1"/></g></svg>