<svg xmlns="http://www.w3.org/2000/svg" xmlns:xlink="http://www.w3.org/1999/xlink" fill="none" version="1.1" width="22.395832061767578" height="19.79166603088379" viewBox="0 0 22.395832061767578 19.79166603088379"><g><path d="M11.197916,0Q3.6886106,0,3.3971834,8.6614532C3.389416,8.7246027,3.3854165,8.7889175,3.3854165,8.854166L3.3854165,13.541666C3.3854165,14.221989,3.8202119,14.800759,4.427083,15.015257L4.427083,16.145832Q4.427083,18.489582,7.0312495,18.75L9.2034922,18.75C9.4179907,19.356871,9.9967604,19.791666,10.677083,19.791666L12.239583,19.791666C13.102528,19.791666,13.802083,19.09211,13.802083,18.229166L13.802083,17.708332C13.802083,16.845388,13.102528,16.145832,12.239583,16.145832L10.677083,16.145832C9.9967604,16.145832,9.4179897,16.580629,9.2034922,17.1875L7.2916665,17.1875Q5.989583,17.1875,5.989583,15.885416L5.989583,15.104166L6.5104165,15.104166C7.3733616,15.104166,8.072916,14.404612,8.072916,13.541666L8.072916,8.854166C8.072916,7.9912214,7.3733616,7.2916665,6.5104165,7.2916665L5.4776735,7.2916665Q6.2414412,2.0507812,11.197916,2.0507812Q16.154392,2.0507812,16.918159,7.2916665L15.885416,7.2916665C15.022471,7.2916665,14.322916,7.9912214,14.322916,8.854166L14.322916,13.541666C14.322916,14.404612,15.022471,15.104166,15.885416,15.104166L17.447916,15.104166C18.31086,15.104166,19.010416,14.404612,19.010416,13.541666L19.010416,8.854166C19.010416,8.7889175,19.006416,8.7246027,18.99865,8.6614532Q18.707224,0,11.197916,0ZM1.5625,14.062499L2.34375,14.062499L2.34375,8.854166L1.5625,8.854166Q0,9.375,0,11.458333Q0,13.541666,1.5625,14.062499ZM20.833332,14.062499L20.052082,14.062499L20.052082,8.854166L20.833332,8.854166Q22.395832,9.375,22.395832,11.458333Q22.395832,13.541666,20.833332,14.062499Z" fill-rule="evenodd" fill="#D1AE52" fill-opacity="1"/></g></svg>