<svg xmlns="http://www.w3.org/2000/svg" xmlns:xlink="http://www.w3.org/1999/xlink" fill="none" version="1.1" width="22.395832061767578" height="18.22916603088379" viewBox="0 0 22.395832061767578 18.22916603088379"><g><path d="M0,15.104166L0,3.125C0,1.3991097,1.3991097,0,3.125,0L19.270832,0C20.996723,0,22.395832,1.3991097,22.395832,3.125L22.395832,15.104166C22.395832,16.830057,20.996723,18.229166,19.270832,18.229166L3.125,18.229166C1.3991097,18.229166,0,16.830057,0,15.104166ZM4.5809312,2.0254612C4.8620415,2.0254612,5.0899277,2.2521689,5.0899277,2.531827L5.0899277,4.0509238C5.0899277,4.3305821,4.8620415,4.5572896,4.5809312,4.5572896C4.2998195,4.5572896,4.0719347,4.3305821,4.0719347,4.0509238L4.0719347,2.531827C4.0719347,2.2521689,4.2998195,2.0254612,4.5809312,2.0254612ZM10.688886,7.5954843C10.688886,9.2734327,12.056197,10.633677,13.742863,10.633677L22.3958,10.633677L22.3958,4.5572896L13.742863,4.5572896C12.056197,4.5572896,10.688886,5.9175358,10.688886,7.5954843ZM4.5809312,6.0763869C4.8620415,6.0763869,5.0899277,6.3030939,5.0899277,6.5827527L5.0899277,8.1018496C5.0899277,8.3815079,4.8620415,8.6082153,4.5809312,8.6082153C4.2998195,8.6082153,4.0719347,8.3815079,4.0719347,8.1018496L4.0719347,6.5827527C4.0719347,6.3030939,4.2998195,6.0763869,4.5809312,6.0763869ZM14.251928,9.1145811C15.095262,9.1145811,15.778916,8.4344578,15.778916,7.5954843C15.778916,6.7565103,15.095262,6.0763874,14.251928,6.0763874C13.408596,6.0763874,12.724939,6.7565103,12.724939,7.5954843C12.724939,8.4344578,13.408596,9.1145811,14.251928,9.1145811ZM4.5809312,10.127313C4.8620415,10.127313,5.0899277,10.35402,5.0899277,10.633677L5.0899277,12.152776C5.0899277,12.432434,4.8620415,12.659141,4.5809312,12.659141C4.2998195,12.659141,4.0719347,12.432434,4.0719347,12.152776L4.0719347,10.633677C4.0719347,10.35402,4.2998195,10.127313,4.5809312,10.127313ZM4.5809312,14.178238C4.8620415,14.178238,5.0899277,14.404946,5.0899277,14.684604L5.0899277,16.203701C5.0899277,16.483358,4.8620415,16.710066,4.5809312,16.710066C4.2998195,16.710066,4.0719347,16.483358,4.0719347,16.203701L4.0719347,14.684604C4.0719347,14.404946,4.2998195,14.178238,4.5809312,14.178238Z" fill-rule="evenodd" fill="#D1AE52" fill-opacity="1"/></g></svg>