<svg xmlns="http://www.w3.org/2000/svg" xmlns:xlink="http://www.w3.org/1999/xlink" fill="none" version="1.1" width="13.229166030883789" height="13.229166030883789" viewBox="0 0 13.229166030883789 13.229166030883789"><g><path d="M2.625,1.25L7.1354165,1.25C7.4805255,1.2498751,7.7602916,0.97010899,7.7602916,0.625C7.7602916,0.27989101,7.4805255,0.00012499094,7.1354165,0L2.625,0Q1.5376892,0,0.7688446,0.76884472Q0,1.5376896,0,2.6250002L0,10.604166Q0,11.691476,0.7688446,12.460321Q1.5376892,13.229166,2.625,13.229166L10.604166,13.229166Q11.691476,13.229166,12.460321,12.460321Q13.229166,11.691476,13.229166,10.604166L13.229041,6.0937505C13.229041,5.748641,12.949275,5.4688749,12.604166,5.4688749C12.259057,5.4688749,11.979291,5.748641,11.979166,6.0937505L11.979166,10.604166Q11.979166,11.979166,10.604166,11.979166L2.625,11.979166Q1.25,11.979166,1.25,10.604166L1.25,2.6250002Q1.25,1.25,2.625,1.25ZM11.747639,2.8485913L10.090797,1.1917498L11.053184,0.2293635C11.37209,-0.089542955,11.908788,-0.069895834,12.251931,0.2732473L12.666142,0.68745768C13.009284,1.0306008,13.028932,1.5672985,12.710025,1.886205L11.747639,2.8485913ZM11.362684,3.233546L9.705843,1.5767045L4.7014341,6.5811129L6.3582754,8.2379541L11.362684,3.233546ZM5.97332,8.6229095L4.3164787,6.9660683L3.6050825,9.3343058L5.97332,8.6229095Z" fill-rule="evenodd" fill="#D1AE52" fill-opacity="1"/></g></svg>