<svg xmlns="http://www.w3.org/2000/svg" xmlns:xlink="http://www.w3.org/1999/xlink" fill="none" version="1.1" width="22" height="18.271209716796875" viewBox="0 0 22 18.271209716796875"><g><g><path d="M8.937494277954102,6.822896042141723C8.937494277954102,8.980258242141723,10.686382177954101,10.729145742141725,12.843744277954102,10.729145742141725L20.6562442779541,10.729145742141725L21.9583272779541,10.729145242141723L21.9583272779541,2.9166462421417236L12.843744277954102,2.9166462421417236C10.686382177954101,2.9166462421417236,8.937494277954102,4.665533942141724,8.937494277954102,6.822896042141723ZM12.843744277954102,4.218729542141723L20.6562442779541,4.218729542141723L20.6562442779541,9.427062242141723L12.843744277954102,9.427062242141723Q11.765063077954101,9.427062242141723,11.002320577954102,8.664319742141725Q10.239577577954101,7.901576742141724,10.239577577954101,6.822895742141723Q10.239577377954102,5.7442150421417235,11.002320277954102,4.981472242141724Q11.765063077954101,4.218729542141723,12.843744277954102,4.218729542141723ZM12.843744077954101,8.124979242141723C13.562865277954103,8.124979242141723,14.145827277954101,7.542017242141724,14.145827277954101,6.822896042141723C14.145827277954101,6.103775242141724,13.562865277954103,5.5208127421417235,12.843744077954101,5.5208127421417235C12.124623277954102,5.5208127421417235,11.541660777954101,6.103775242141724,11.541660777954101,6.822896042141723C11.541660777954101,7.542017242141724,12.124623277954102,8.124979242141723,12.843744077954101,8.124979242141723Z" fill-rule="evenodd" fill="#D1AE52" fill-opacity="1"/></g><g><path d="M0,2.6101732L0,15.661039C0,17.1026,1.1725875,18.271214,2.6190474,18.271214L19.380951,18.271214C20.827412,18.271214,22,17.1026,22,15.661039L22,2.6101732C22,1.1686143,20.827412,0,19.380951,0L2.6190474,0C1.1725875,0,0,1.1686143,0,2.6101732ZM2.6190474,16.966125Q1.3095237,16.966125,1.3095237,15.661039L1.3095237,2.6101732Q1.3095237,1.3050866,2.6190474,1.3050866L19.380951,1.3050866Q20.690475,1.3050866,20.690475,2.6101732L20.690475,15.661039Q20.690475,16.966125,19.380951,16.966125L2.6190474,16.966125ZM3.1428571,3.6542428L3.1428571,5.2203465C3.1428571,5.5086584,3.3773744,5.7423811,3.6666667,5.7423811C3.9559586,5.7423811,4.1904759,5.5086584,4.1904759,5.2203465L4.1904759,3.6542428C4.1904759,3.365931,3.9559586,3.1322081,3.6666667,3.1322081C3.3773744,3.1322081,3.1428571,3.365931,3.1428571,3.6542428ZM3.1428571,6.7864504L3.1428571,8.3525543C3.1428571,8.6408663,3.3773744,8.874589,3.6666667,8.874589C3.9559586,8.874589,4.1904759,8.6408663,4.1904759,8.3525543L4.1904759,6.7864504C4.1904759,6.4981384,3.9559586,6.2644162,3.6666667,6.2644162C3.3773744,6.2644162,3.1428571,6.4981384,3.1428571,6.7864504ZM3.1428571,9.9186583L3.1428571,11.484762C3.1428571,11.773074,3.3773744,12.006797,3.6666667,12.006797C3.9559586,12.006797,4.1904759,11.773074,4.1904759,11.484762L4.1904759,9.9186583C4.1904759,9.6303473,3.9559586,9.3966246,3.6666667,9.3966246C3.3773744,9.3966246,3.1428571,9.6303473,3.1428571,9.9186583ZM3.1428571,13.050867L3.1428571,14.616971C3.1428571,14.905282,3.3773744,15.139005,3.6666667,15.139005C3.9559586,15.139005,4.1904759,14.905282,4.1904759,14.616971L4.1904759,13.050867C4.1904759,12.762555,3.9559586,12.528832,3.6666667,12.528832C3.3773744,12.528832,3.1428571,12.762555,3.1428571,13.050867Z" fill-rule="evenodd" fill="#666666" fill-opacity="1"/></g></g></svg>