<svg xmlns="http://www.w3.org/2000/svg" xmlns:xlink="http://www.w3.org/1999/xlink" fill="none" version="1.1" width="10.416666030883789" height="10.005494117736816" viewBox="0 0 10.416666030883789 10.005494117736816"><g><path d="M4.427083,1.0416666L1.8229166,1.0416666L1.8229166,0.52083331Q1.8229166,0,2.4739583,0Q2.8645833,0,3.2552083,0.26041666L4.427083,1.0416666ZM5.989583,1.0416666L8.59375,1.0416666L8.59375,0.52083331Q8.59375,0,7.942708,0Q7.552083,0,7.161458,0.26041666L5.989583,1.0416666ZM0,2.6041665L0,4.1015625L4.8828125,4.1015625L4.8828125,2.0833333L0.52083331,2.0833333C0.23318501,2.0833333,0,2.3165183,0,2.6041665ZM10.416666,2.6041665L10.416666,4.1015625L5.7942705,4.1015625L5.7942705,2.0833333L9.895833,2.0833333C10.183481,2.0833333,10.416666,2.3165183,10.416666,2.6041665ZM0.52083331,9.505208L0.52083331,5.0130205L4.8828125,5.0130205L4.8828125,10.15625L1.171875,10.15625C0.81231457,10.15625,0.52083331,9.864769,0.52083331,9.505208ZM9.244791,10.15625L5.7942705,10.15625L5.7942705,5.0130205L9.895833,5.0130205L9.895833,9.505208C9.895833,9.864769,9.604351,10.15625,9.244791,10.15625Z" fill-rule="evenodd" fill="#D1AE52" fill-opacity="1"/></g></svg>