<svg xmlns="http://www.w3.org/2000/svg" xmlns:xlink="http://www.w3.org/1999/xlink" fill="none" version="1.1" width="23.958328247070312" height="21.354156494140625" viewBox="0 0 23.958328247070312 21.354156494140625"><g><g><path d="M13.164595,0.51468927C13.158313,0.50793147,13.151959,0.50121307,13.145533,0.49453482C12.541093,-0.13360006,11.525641,-0.16796352,10.877459,0.41778186L0.5103181,9.7862902C-0.13786413,10.372036,-0.17332464,11.35608,0.43111551,11.984215C0.73671013,12.301789,1.1473652,12.467588,1.5625,12.478206L1.5625,12.5L3.125,12.5L3.125,19.791666C3.125,20.65461,3.8245547,21.354166,4.6875,21.354166L19.270832,21.354166C20.133778,21.354166,20.833332,20.65461,20.833332,19.791666L20.833332,12.5L22.395834,12.5L22.395521,12.499463L22.395521,12.499463C22.810966,12.488836,23.221622,12.323038,23.527216,12.005465C23.545641,11.986318,23.563471,11.96684,23.580708,11.947053C24.128927,11.317709,24.076439,10.375431,23.448015,9.8075399L13.164595,0.51468927ZM22.357895,11.197916L22.362473,11.1978Q22.500769,11.194288,22.58898,11.102617Q22.659424,11.029413,22.656113,10.937497Q22.652737,10.843844,22.57501,10.773604L12.249512,1.4427302L12.2109,1.4011923Q12.209102,1.3992579,12.207295,1.3973804Q11.987847,1.1693304,11.750465,1.3838462L1.3833251,10.752355Q1.3055968,10.822595,1.302222,10.916247Q1.2989097,11.008163,1.3693537,11.081369Q1.4575397,11.173013,1.5957899,11.176548L2.431294,11.197916L4.427083,11.197916L4.4270835,19.791666Q4.4270835,20.052082,4.6875,20.052082L19.270832,20.052082Q19.53125,20.052082,19.53125,19.791666L19.53125,11.197916L22.357895,11.197916Z" fill-rule="evenodd" fill="#666666" fill-opacity="1"/></g><g><path d="M8.854166030883789,16.145833015441895L8.854166030883789,21.354166015441894L15.104166030883789,21.354166015441894L15.104166030883789,16.145833015441895C15.104166030883789,14.419943015441895,13.70505623088379,13.020833015441895,11.979166030883789,13.020833015441895C10.25327603088379,13.020833015441895,8.854166030883789,14.419943015441895,8.854166030883789,16.145833015441895Z" fill="#D1AE52" fill-opacity="1"/></g></g></svg>