<svg xmlns="http://www.w3.org/2000/svg" xmlns:xlink="http://www.w3.org/1999/xlink" fill="none" version="1.1" width="23.95833396911621" height="21.037189483642578" viewBox="0 0 23.95833396911621 21.037189483642578"><g><path d="M0.5103181,9.7862902C-0.13786413,10.372036,-0.17332464,11.35608,0.43111551,11.984215C0.73671013,12.301789,1.1473652,12.467588,1.5625,12.478206L1.5625,12.5L3.125,12.5L3.125,19.791666C3.125,20.65461,3.8245547,21.354166,4.6875,21.354166L8.854166,21.354166L8.854166,16.145832C8.854166,14.419943,10.253276,13.020833,11.979166,13.020833C13.705056,13.020833,15.104166,14.419943,15.104166,16.145832L15.104166,21.354166L19.270832,21.354166C20.133778,21.354166,20.833332,20.65461,20.833332,19.791666L20.833332,12.5L22.395834,12.5L22.395521,12.499463C22.81076,12.48892,23.221546,12.323119,23.527216,12.005465C24.131659,11.37733,24.096197,10.393286,23.448015,9.8075399L13.164595,0.51468927C13.158313,0.50793147,13.151959,0.50121307,13.145533,0.49453482C12.541093,-0.13360006,11.525641,-0.16796352,10.877459,0.41778186L0.5103181,9.7862902Z" fill-rule="evenodd" fill="#D1AE52" fill-opacity="1"/></g></svg>