<svg xmlns="http://www.w3.org/2000/svg" xmlns:xlink="http://www.w3.org/1999/xlink" fill="none" version="1.1" width="22.395832061767578" height="18.229171752929688" viewBox="0 0 22.395832061767578 18.229171752929688"><g><g><path d="M2.6041665,18.229166Q0,18.229166,0,15.624999L0,13.020833Q2.6041665,11.979166,2.6041665,9.114583Q2.6041665,6.25,0,5.208333L0,2.6041665Q0,0,2.6041665,0L19.791666,0Q22.395832,0,22.395832,2.6041665L22.395832,5.208333Q19.791666,6.25,19.791666,9.114583Q19.791666,11.979166,22.395832,13.020833L22.395832,15.624999Q22.395832,18.229166,19.791666,18.229166L2.6041665,18.229166ZM21.09375,13.841269Q18.489582,12.382233,18.489582,9.114583Q18.489582,5.8469324,21.09375,4.3878956L21.09375,2.6041665Q21.09375,1.3020833,19.791666,1.3020833L2.6041665,1.3020833Q1.3020833,1.3020833,1.3020833,2.6041665L1.3020833,4.3878961Q3.9062498,5.8469329,3.9062498,9.114583Q3.9062498,12.382233,1.3020833,13.841269L1.3020833,15.624999Q1.3020833,16.927082,2.6041665,16.927082L19.791666,16.927082Q21.09375,16.927082,21.09375,15.624999L21.09375,13.841269Z" fill-rule="evenodd" fill="#666666" fill-opacity="1"/></g><g><path d="M8.333333007720947,5.729166507720947L16.145832507720947,5.729166507720947L15.885416507720947,4.166666507720947L8.333333007720947,5.729166507720947ZM16.666666507720947,6.249999807720947L16.666666507720947,13.020832507720947L5.729166507720947,13.020832507720947L5.729166507720947,6.249999807720947L16.666666507720947,6.249999807720947ZM7.031249807720947,8.333333007720947L7.031249807720947,10.937499507720947Q7.812499807720947,10.937499507720947,7.812499807720947,11.718749507720947L14.583332507720947,11.718749507720947Q14.583332507720947,10.937499507720947,15.364582507720947,10.937499507720947L15.364582507720947,8.333333007720947Q14.583332507720947,8.333333007720947,14.583332507720947,7.552083007720947L7.812499807720947,7.552083007720947Q7.812499807720947,8.333333007720947,7.031249807720947,8.333333007720947ZM11.197916507720947,10.937499507720947C11.917037507720948,10.937499507720947,12.499999507720947,10.354537507720948,12.499999507720947,9.635416507720947C12.499999507720947,8.916295507720946,11.917037507720948,8.333333007720947,11.197916507720947,8.333333007720947C10.478795507720946,8.333333007720947,9.895833007720947,8.916295507720946,9.895833007720947,9.635416507720947C9.895833007720947,10.354537507720948,10.478795507720946,10.937499507720947,11.197916507720947,10.937499507720947Z" fill-rule="evenodd" fill="#D1AE52" fill-opacity="1"/></g></g></svg>