<svg xmlns="http://www.w3.org/2000/svg" xmlns:xlink="http://www.w3.org/1999/xlink" fill="none" version="1.1" width="20.833328247070312" height="20.312484741210938" viewBox="0 0 20.833328247070312 20.312484741210938"><g><g><path d="M3.6458332538604736,2.0833333L8.854166253860473,2.0833333L6.510416553860473,0.52083331Q5.729166553860473,0,4.947916553860473,0Q3.6458332538604736,0,3.6458332538604736,1.0416666L3.6458332538604736,2.0833333ZM17.187499253860473,2.0833333L11.979166253860473,2.0833333L14.322916253860473,0.52083331Q15.104166253860473,0,15.885416253860473,0Q17.187499253860473,0,17.187499253860473,1.0416666L17.187499253860473,2.0833333Z" fill="#D1AE52" fill-opacity="1"/></g><g><path d="M19.791666,9.895833007720947L19.791666,18.089704507720946C19.791666,18.679225507720947,19.55748,19.24460250772095,19.140625,19.661457507720947C18.72377,20.078312507720945,18.158394,20.312498507720946,17.568872,20.312498507720946L3.2644613,20.312498507720946C2.6749399,20.312498507720946,2.1095634,20.078312507720945,1.6927083,19.661457507720947C1.2758534,19.24460250772095,1.0416666,18.679225507720947,1.0416666,18.089704507720946L1.0416666,9.895833007720947C0.46637002,9.895833007720947,0,9.429462907720946,0,8.854166507720947L0,5.944902807720947C0,5.473285207720947,0.18734935,5.020983817720947,0.52083331,4.687499817720948C0.85431731,4.354015857720947,1.3066186,4.166666507720947,1.778236,4.166666507720947L19.055098,4.166666507720947C19.526712,4.166666507720947,19.979015,4.354015857720947,20.3125,4.687499817720948C20.645983,5.020983817720947,20.833332,5.473285207720947,20.833332,5.944902807720947L20.833332,8.854166507720947C20.833332,9.429462907720946,20.366962,9.895833007720947,19.791666,9.895833007720947ZM9.765625,5.468749807720947L1.7782363,5.468749807720947Q1.581007,5.468749807720947,1.4415447,5.608212107720947Q1.3020833,5.747673507720947,1.3020833,5.944902807720947L1.3020833,8.203124507720947L9.765625,8.203124507720947L9.765625,5.468749807720947ZM2.34375,9.505208007720947L9.765625,9.505208007720947L9.765625,19.01041550772095L3.2644613,19.01041550772095Q2.8830898,19.01041550772095,2.6134205,18.74074650772095Q2.34375,18.471075507720947,2.34375,18.089704507720946L2.34375,9.505208007720947ZM11.067708,19.01041550772095L11.067708,9.505208007720947L18.489582,9.505208007720947L18.489582,18.089704507720946Q18.489582,18.471076507720948,18.219913,18.74074650772095Q17.950245,19.01041550772095,17.568872,19.01041550772095L11.067708,19.01041550772095ZM19.53125,8.203124507720947L11.067708,8.203124507720947L11.067708,5.468749807720947L19.055098,5.468749807720947Q19.252325,5.468749807720947,19.391787,5.6082098077209475Q19.53125,5.747672107720947,19.53125,5.944902807720947L19.53125,8.203124507720947Z" fill-rule="evenodd" fill="#666666" fill-opacity="1"/></g></g></svg>