<svg xmlns="http://www.w3.org/2000/svg" xmlns:xlink="http://www.w3.org/1999/xlink" fill="none" version="1.1" width="20.312501907348633" height="20.312484741210938" viewBox="0 0 20.312501907348633 20.312484741210938"><g><g><path d="M12.863025,10.221737C14.512846,9.2801552,15.624999,7.5043316,15.624999,5.46875C15.624999,2.4484425,13.176557,0,10.15625,0C7.1359425,0,4.6875,2.4484425,4.6875,5.46875C4.6875,7.5043316,5.7996535,9.2801561,7.4494753,10.221738C3.5629008,11.184487,0.61038637,14.202303,0.083881617,18.229166C0.044533111,18.530113,0.018734733,18.836699,0.0071093435,19.148481C0.0024139881,19.188614,0,19.229441,0,19.270832C0,19.292032,0.00063329935,19.313082,0.0018820165,19.333967C0.00062932569,19.399508,0,19.465269,0,19.53125L0.032817323,19.53125C0.14845331,19.980528,0.55629188,20.3125,1.0416666,20.3125L19.270832,20.3125C19.756207,20.3125,20.164045,19.980528,20.279682,19.53125L20.3125,19.53125C20.3125,19.465267,20.311871,19.399502,20.310617,19.333969C20.311865,19.313084,20.3125,19.292032,20.3125,19.270832C20.3125,19.229439,20.310085,19.188612,20.305391,19.148493C20.293766,18.836704,20.267967,18.530117,20.228617,18.229166C19.702112,14.202303,16.749599,11.184487,12.863025,10.221737ZM14.322916,5.46875C14.322916,3.1675632,12.457436,1.3020833,10.15625,1.3020833C7.8550634,1.3020833,5.989583,3.1675632,5.989583,5.46875C5.989583,7.7699361,7.8550634,9.635416,10.15625,9.635416C12.457436,9.635416,14.322916,7.7699361,14.322916,5.46875ZM3.9709713,13.463649Q1.5059882,15.672411,1.3170396,19.010416L18.995459,19.010416Q18.806511,15.672414,16.341532,13.463652Q13.812969,11.197916,10.15625,11.197916Q6.4995327,11.197916,3.9709713,13.463649Z" fill-rule="evenodd" fill="#666666" fill-opacity="1"/></g><g><rect x="8.854166030883789" y="12.5" width="2.6041665077209473" height="5.729166507720947" rx="1.3020832538604736" fill="#D1AE52" fill-opacity="1"/></g></g></svg>