<svg xmlns="http://www.w3.org/2000/svg" xmlns:xlink="http://www.w3.org/1999/xlink" fill="none" version="1.1" width="20.3125" height="20.010988235473633" viewBox="0 0 20.3125 20.010988235473633"><g><path d="M12.863026,10.221737C14.512847,9.2801552,15.624999,7.5043311,15.624999,5.46875C15.624999,2.4484425,13.176557,0,10.15625,0C7.1359425,0,4.6875,2.4484425,4.6875,5.46875C4.6875,7.5043316,5.7996531,9.2801552,7.4494743,10.221737C3.2724366,11.256439,0.17429008,14.664855,0.0071095177,19.148481C0.0024142161,19.188614,0,19.229441,0,19.270832C0,19.292032,0.00063325395,19.313082,0.0018818775,19.333967C0.00062918331,19.399508,0,19.465269,0,19.53125L0.032817099,19.53125C0.1484533,19.980528,0.55629182,20.3125,1.0416666,20.3125L19.270832,20.3125C19.756207,20.3125,20.164045,19.980528,20.279682,19.53125L20.3125,19.53125C20.3125,19.465267,20.311871,19.399502,20.310617,19.333969C20.311865,19.313084,20.3125,19.292032,20.3125,19.270832C20.3125,19.229439,20.310085,19.188612,20.305391,19.148493C20.138214,14.66486,17.040066,11.256439,12.863026,10.221737ZM8.854166,16.927082L8.854166,13.802083C8.854166,13.082962,9.4371281,12.5,10.15625,12.5C10.875371,12.5,11.458333,13.082962,11.458333,13.802083L11.458333,16.927082C11.458333,17.646202,10.875371,18.229166,10.15625,18.229166C9.4371281,18.229166,8.854166,17.646202,8.854166,16.927082Z" fill-rule="evenodd" fill="#D1AE52" fill-opacity="1"/></g></svg>