<svg xmlns="http://www.w3.org/2000/svg" xmlns:xlink="http://www.w3.org/1999/xlink" fill="none" version="1.1" width="22.395832061767578" height="18.22916603088379" viewBox="0 0 22.395832061767578 18.22916603088379"><g><path d="M2.6041665,18.229166Q0,18.229166,0,15.624999L0,13.020833Q2.6041665,11.979166,2.6041665,9.114583Q2.6041665,6.25,0,5.208333L0,2.6041665Q0,0,2.6041665,0L19.791666,0Q22.395832,0,22.395832,2.6041665L22.395832,5.208333Q19.791666,6.25,19.791666,9.114583Q19.791666,11.979166,22.395832,13.020833L22.395832,15.624999Q22.395832,18.229166,19.791666,18.229166L2.6041665,18.229166ZM16.145832,5.7291665L8.333333,5.7291665L15.885416,4.1666665L16.145832,5.7291665ZM16.666666,6.25L5.7291665,6.25L5.7291665,13.020833L16.666666,13.020833L16.666666,6.25ZM7.0312495,10.9375L7.0312495,8.333333Q7.8124995,8.333333,7.8124995,7.552083L14.583333,7.552083Q14.583333,8.333333,15.364583,8.333333L15.364583,10.9375Q14.583333,10.9375,14.583333,11.71875L7.8124995,11.71875Q7.8124995,10.9375,7.0312495,10.9375ZM12.5,9.635416C12.5,10.354537,11.917037,10.9375,11.197916,10.9375C10.478796,10.9375,9.895833,10.354537,9.895833,9.635416C9.895833,8.916296,10.478796,8.333333,11.197916,8.333333C11.917037,8.333333,12.5,8.916296,12.5,9.635416Z" fill-rule="evenodd" fill="#D1AE52" fill-opacity="1"/></g></svg>