<svg xmlns="http://www.w3.org/2000/svg" xmlns:xlink="http://www.w3.org/1999/xlink" fill="none" version="1.1" width="17.83854103088379" height="18.359375" viewBox="0 0 17.83854103088379 18.359375"><g><path d="M14.322917,2.213542L14.322917,4.5572915L13.020834,4.5572915L13.020834,2.213542Q13.020834,1.8360028,12.753875,1.5690435Q12.486915,1.3020833,12.109375,1.3020833L2.2135415,1.3020833Q1.3020833,1.3020833,1.3020833,2.2135415L1.3020833,14.192708Q1.3020833,15.104167,2.2135415,15.104167L4.817708,15.104167L4.817708,16.40625L2.2135415,16.40625Q1.2966622,16.40625,0.64833164,15.757918Q0,15.109588,0,14.192708L0,2.2135415Q0,1.2966627,0.64833164,0.64833164Q1.2966627,0,2.2135415,0L12.109375,0Q12.911646,0,13.508308,0.49637851Q13.593546,0.56729019,13.674587,0.64833164Q14.322917,1.2966617,14.322917,2.213542ZM2.734375,4.427083C2.734375,4.067523,3.0258565,3.7760415,3.3854165,3.7760415L10.416666,3.7760415C10.776227,3.7760415,11.067708,4.067523,11.067708,4.427083C11.067708,4.786643,10.776227,5.078125,10.416666,5.078125L3.3854165,5.078125C3.0258565,5.078125,2.734375,4.786643,2.734375,4.427083ZM2.734375,7.552083C2.734375,7.9116435,3.0258565,8.203125,3.3854165,8.203125L5.9635415,8.203125C6.1936598,8.203125,6.380208,8.0165768,6.380208,7.786458L6.380208,7.317708C6.380208,7.0875897,6.1936598,6.9010415,5.963542,6.901042L3.3854165,6.9010415C3.0258565,6.9010415,2.734375,7.192523,2.734375,7.552083ZM17.838541,12.630208C17.838541,15.794339,15.273506,18.359375,12.109375,18.359375C8.9452429,18.359375,6.380208,15.794339,6.380208,12.630208C6.380208,9.4660769,8.9452429,6.9010415,12.109375,6.9010415C15.273506,6.9010415,17.838541,9.4660769,17.838541,12.630208ZM16.536459,12.630208Q16.536459,10.796451,15.239796,9.4997883Q13.943133,8.203125,12.109375,8.2031269Q10.275617,8.203126,8.9789534,9.4997883Q7.6822915,10.796451,7.6822925,12.630207Q7.6822915,14.463965,8.9789543,15.76063Q10.275618,17.057291,12.109375,17.057291Q13.943133,17.057291,15.239796,15.76063Q16.536459,14.463966,16.536459,12.630208ZM12.123658,9.5148153C12.382228,9.8893175,13.100069,10.617976,13.738803,11.175585C14.263266,11.628453,15.103434,12.30512,15.104166,13.243258C15.104166,14.004318,14.52916,14.674202,13.667749,14.674202C13.122045,14.674202,12.66204,14.411976,12.482579,14.037474C12.432037,13.938763,12.424713,13.892797,12.367578,13.892797C12.321003,13.892797,12.323567,13.982377,12.324257,14.006466L12.324361,14.011101C12.367578,14.693794,12.633472,15.055486,13.035611,15.363678C13.114719,15.429234,13.064178,15.494791,13.035611,15.494791L11.183139,15.494791C11.154572,15.494791,11.096705,15.429234,11.183139,15.363678C11.585277,15.054732,11.851171,14.693794,11.894388,14.011101L11.894495,14.006207C11.895189,13.981478,11.897677,13.892797,11.851171,13.892797C11.793305,13.892797,11.786713,13.938763,11.73617,14.037474C11.55671,14.411222,11.096705,14.674202,10.551,14.674202C9.6961813,14.674202,9.114583,14.005073,9.114583,13.243258C9.114583,12.30512,9.954751,11.628453,10.479215,11.175585C11.11868,10.617976,11.836521,9.8893175,12.095091,9.5148153C12.102417,9.5020056,12.116333,9.5020056,12.123658,9.5148153Z" fill-rule="evenodd" fill="#FFAA09" fill-opacity="1" style="mix-blend-mode:passthrough"/></g></svg>