<svg xmlns="http://www.w3.org/2000/svg" xmlns:xlink="http://www.w3.org/1999/xlink" fill="none" version="1.1" width="15.624999046325684" height="15.624999046325684" viewBox="0 0 15.624999046325684 15.624999046325684"><g><path d="M15.624999,7.8124995C15.624999,9.6920757,14.961248,11.416625,13.855354,12.764536L14.227777,15.038796C14.262331,15.249804,14.041932,15.410233,13.851755,15.312504L12.041766,14.382371C10.822804,15.168682,9.3709412,15.624999,7.8124995,15.624999C3.4977753,15.624999,0,12.127224,0,7.8124995C0,3.4977753,3.4977753,0,7.8124995,0C12.127224,0,15.624999,3.4977753,15.624999,7.8124995ZM3.6458333,9.375C4.5087781,9.375,5.208333,8.6754446,5.208333,7.8124995C5.208333,6.9495544,4.5087781,6.25,3.6458333,6.25C2.7828882,6.25,2.0833333,6.9495544,2.0833333,7.8124995C2.0833333,8.6754446,2.7828882,9.375,3.6458333,9.375ZM7.8124995,9.375C8.6754446,9.375,9.375,8.6754446,9.375,7.8124995C9.375,6.9495544,8.6754446,6.25,7.8124995,6.25C6.9495544,6.25,6.25,6.9495544,6.25,7.8124995C6.25,8.6754446,6.9495544,9.375,7.8124995,9.375ZM11.979166,9.375C12.842112,9.375,13.541666,8.6754446,13.541666,7.8124995C13.541666,6.9495544,12.842112,6.25,11.979166,6.25C11.116221,6.25,10.416666,6.9495544,10.416666,7.8124995C10.416666,8.6754446,11.116221,9.375,11.979166,9.375Z" fill-rule="evenodd" fill="#D1AE52" fill-opacity="1"/></g></svg>