<svg xmlns="http://www.w3.org/2000/svg" xmlns:xlink="http://www.w3.org/1999/xlink" fill="none" version="1.1" width="20.052162170410156" height="18.880207061767578" viewBox="0 0 20.052162170410156 18.880207061767578"><g><path d="M14.192708,4.6875C14.192708,7.2763348,12.094042,9.375,9.505208,9.375C6.9163733,9.375,4.817708,7.2763348,4.817708,4.6875C4.817708,2.0986655,6.9163733,0,9.505208,0C12.094042,0,14.192708,2.0986655,14.192708,4.6875ZM12.890624,4.6875C12.890624,2.8177857,11.374922,1.3020833,9.505208,1.3020833C7.6354938,1.3020833,6.1197915,2.8177857,6.1197915,4.6875C6.1197915,6.5572138,7.6354938,8.072916,9.505208,8.072916C11.374922,8.072916,12.890624,6.5572138,12.890624,4.6875ZM12.413557,13.098666L15.798973,9.4528332C16.043636,9.1893501,16.45557,9.1740932,16.719055,9.4187574C16.756374,9.4534111,16.789501,9.4923277,16.817751,9.5347023L19.942751,14.222202C20.142199,14.521376,20.061357,14.925587,19.762186,15.125035C19.700094,15.16643,19.63135,15.196839,19.558954,15.214939L16.411091,16.001905L17.379065,17.938066C17.424255,18.02845,17.447783,18.128113,17.447783,18.229162C17.447783,18.588652,17.156361,18.880074,16.796871,18.880074C16.550323,18.880074,16.324938,18.740778,16.214561,18.520319L15.117213,16.325375L14.35062,16.517023C14.064828,16.58847,13.76667,16.459108,13.623607,16.201593L12.321524,13.857843C12.184683,13.611531,12.221826,13.305147,12.413557,13.098666ZM0,18.880207L10.026041,18.880207C10.38553,18.880077,10.676952,18.588654,10.676952,18.229166C10.676952,17.869678,10.38553,17.578255,10.026041,17.578125L1.3179619,17.578125Q1.4585534,14.773658,2.8439064,13.343616Q4.0395765,12.109377,5.859375,12.109377L10.026041,12.109244C10.38553,12.109244,10.676952,11.817822,10.676952,11.458333C10.676952,11.098845,10.38553,10.807422,10.026041,10.807291L5.859375,10.807293Q3.4880905,10.807293,1.9086976,12.437634Q0,14.407903,0,18.229166L0,18.880207ZM14.519303,15.132695L13.689181,13.638476L16.191881,10.943261L18.346903,14.175794L14.519303,15.132695ZM9.8959599,14.58333C9.8959599,14.701303,9.9280224,14.81706,9.9887199,14.918221L11.551107,17.522453C11.668855,17.718445,11.88073,17.838408,12.109371,17.838408C12.46886,17.838408,12.760283,17.546986,12.760283,17.187496C12.760283,17.069521,12.728221,16.953768,12.667523,16.852604L11.105136,14.248371C10.987389,14.052381,10.775512,13.932418,10.546871,13.932418C10.187383,13.932418,9.8959599,14.223842,9.8959599,14.58333Z" fill-rule="evenodd" fill="#D1AE52" fill-opacity="1"/></g></svg>