<svg xmlns="http://www.w3.org/2000/svg" xmlns:xlink="http://www.w3.org/1999/xlink" fill="none" version="1.1" width="17.708332061767578" height="17.708332061767578" viewBox="0 0 17.708332061767578 17.708332061767578"><g><path d="M17.708332,8.854166C17.708332,13.744187,13.744187,17.708332,8.854166,17.708332C3.9641449,17.708332,0,13.744187,0,8.854166C0,3.9641449,3.9641449,0,8.854166,0C13.744187,0,17.708332,3.9641449,17.708332,8.854166ZM16.40625,8.854166C16.40625,4.6832657,13.025066,1.3020833,8.854166,1.3020833C4.6832657,1.3020833,1.3020833,4.6832657,1.3020833,8.854166C1.3020833,13.025066,4.6832657,16.40625,8.854166,16.40625C13.025066,16.40625,16.40625,13.025066,16.40625,8.854166ZM8.072916,4.427083L8.072916,10.15625C8.072916,10.587722,8.4226942,10.9375,8.854166,10.9375C9.2856388,10.9375,9.635416,10.587722,9.635416,10.15625L9.635416,4.427083C9.635416,3.9956107,9.2856388,3.6458333,8.854166,3.6458333C8.4226942,3.6458333,8.072916,3.9956107,8.072916,4.427083ZM8.854166,14.062499C9.4294624,14.062499,9.895833,13.596128,9.895833,13.020833C9.895833,12.445536,9.4294624,11.979166,8.854166,11.979166C8.2788696,11.979166,7.8124995,12.445536,7.8124995,13.020833C7.8124995,13.596128,8.2788696,14.062499,8.854166,14.062499Z" fill-rule="evenodd" fill="#D1AE52" fill-opacity="1"/></g></svg>